# xmcd
#
# Track frame offsets: 
#        150
#        14798
#        29733
#        41082
#        53492
#        63688
#        73959
#        89715
#        105300
#        116312
#        130097
#        145566
#        166133
#        177895
#        191728
#        208281
#        229425
#        243242
#        257968
#        275078
#        289594
#        303316
#
# Disc length: 4273 seconds
#
# Revision: 3
# Processed by: cddbd v1.5.1PL0 Copyright (c) Steve Scherf et al.
# Submitted via: ExactAudioCopy v0.95b2
#
DISCID=5310af16
DTITLE=Various Artist - To nejlepsi z ceské country 2 Konske hrivy
DYEAR=2005
DGENRE=Country
TTITLE0=Waldemar Matuska - Ruze z Texasu
TTITLE1=Kamelot - Zachrante kone
TTITLE2=Mirek Hoffmann - Vuz do Tennessee
TTITLE3=Jiri Suchy - Krajina posedla tmou
TTITLE4=Vrata Vyskocil a Taxmeni - Good By
TTITLE5=Greenhorns - Rodeo
TTITLE6=Jiri Grossmann - Blizzard
TTITLE7=Waldemar Matuska - Uz konicek padi
TTITLE8=Robert Krestan - Sest bilejch koni
TTITLE9=Vera Martinova - Kun, co vyhral nejslavnejsi steeplechase
TTITLE10=Wabi Danek - Montgomery
TTITLE11=Grosaci - Don Diego
TTITLE12=Rowers - Miriam z rance W
TTITLE13=Rangers - 500 mil
TTITLE14=Waldemar Matuska - Divoky kone
TTITLE15=Ladislav Vodicka - Shane
TTITLE16=Zelenaci a Mirek Hoffmann - Mam kovboje cejch
TTITLE17=Druha trava - Spanelsky nebe
TTITLE18=KTO - Sedlo z bodlaku
TTITLE19=Wabi Danek - Rychlejsi kone
TTITLE20=Vera Martinova - Srdcem jsi zustal u koni
TTITLE21=Waldemar Matuska - Jo, tresne zraly
EXTD=YEAR: 2005
EXTT0=
EXTT1=
EXTT2=
EXTT3=
EXTT4=
EXTT5=
EXTT6=
EXTT7=
EXTT8=
EXTT9=
EXTT10=
EXTT11=
EXTT12=
EXTT13=
EXTT14=
EXTT15=
EXTT16=
EXTT17=
EXTT18=
EXTT19=
EXTT20=
EXTT21=
PLAYORDER=
